<svg xmlns="http://www.w3.org/2000/svg" viewBox="0 0 387.83 229.76"><defs><style>.cls-1{fill:#fff;}.cls-2{fill:#e83a39;}</style></defs><title>img_joinlogo.svg</title><g id="レイヤー_2" data-name="レイヤー 2"><g id="レイヤー_1-2" data-name="レイヤー 1"><path class="cls-1" d="M4.8,105.89h8.25a39.68,39.68,0,0,0-4.5,5.31A8,8,0,0,0,7,115.94a5.91,5.91,0,0,0,1.12,3.48,6.23,6.23,0,0,0,3.72,2.25,34.5,34.5,0,0,0,7.61.74,90.44,90.44,0,0,0,9.47-.42q3.92-.42,7.51-1.05v7.59a118.8,118.8,0,0,1-18.47,1.27Q9,129.72,4.47,126.24A11.4,11.4,0,0,1,0,116.51a14.48,14.48,0,0,1,1.35-6A17.61,17.61,0,0,1,4.8,105.89ZM.95,78.75H34.36v5.63l-9.81,8.51H15.69l6.9-6.75H.95Z"/><path class="cls-1" d="M47,77.13H75.36v7.24q-5.28,4.36-8.15,6.79t-8.83,7.28q12.85-1.55,24.35-2.11v7.24l-10,.84a20.36,20.36,0,0,0-5.88,1.69,18.52,18.52,0,0,0-5.31,3.59,10.37,10.37,0,0,0-3,5.41q-.47,3.38.95,5.2a6.89,6.89,0,0,0,3.62,2.46,24.23,24.23,0,0,0,4.36.84,75.28,75.28,0,0,0,9.74.07v7.38a76.3,76.3,0,0,1-9.81-.07q-2.1-.21-5.51-.91A14.18,14.18,0,0,1,56,127.51a13.65,13.65,0,0,1-3.89-4.71,12.2,12.2,0,0,1-.85-7.28,15.82,15.82,0,0,1,1.83-4.78,18.84,18.84,0,0,1,5.07-5.55l-18,1.55V99.49l7.64-.7q5-3.8,8-6.36t9.37-8.05H47Z"/><path class="cls-1" d="M86.86,91.12V84h8.79q.47-4.78.54-7.38h7.1q-.14,2.18-.74,7.38H112l-.07,7.17h-9.94q-1.83,13.36-3.48,22.11T95,130.08H87.47q2-8.3,4-18.56t3.38-20.39Zm19.75,19.62h7.24A13.16,13.16,0,0,0,111,119q.17,4,7.61,4.11,3.86,0,6.66-.14t4.9-.28v7.45q-2.71.21-5.75.32t-7.64-.18a17.19,17.19,0,0,1-7.44-1.79,9.44,9.44,0,0,1-4.09-3.9,10.68,10.68,0,0,1-1.18-4.92,18.38,18.38,0,0,1,.64-4.89A17.66,17.66,0,0,1,106.62,110.74Zm4.26-18.07q12.18-.21,18.33-.07v7.45q-2.23-.14-6.93-.18T111,100Zm8-6V76.57h4.67V86.69Zm7.31,0V76.57h4.67V86.69Z"/><path class="cls-1" d="M178.19,79.24v7.52a25.86,25.86,0,0,0-10.79,3.83,37.88,37.88,0,0,0-8.73,7.28,20,20,0,0,0-4.57,8.09q-1.42,5.42.27,8.79a10.51,10.51,0,0,0,4.43,4.82,15.31,15.31,0,0,0,5.78,1.72,32.62,32.62,0,0,0,5.61.07q2.3-.21,4.46-.56v7.8a42.74,42.74,0,0,1-4.77.32q-2.54,0-5.58-.18a24.27,24.27,0,0,1-6.29-1.37,16.36,16.36,0,0,1-6.19-3.66,20.48,20.48,0,0,1-4.3-6.15q-1.76-3.73-1.22-9.7a27,27,0,0,1,2.37-7.59,28.25,28.25,0,0,1,3.79-5.91,38.31,38.31,0,0,1,3.65-3.83q1.56-1.37,5.14-3.9H137.06V79.24Z"/><path class="cls-1" d="M187.66,77.41h7.24v9.28h29v7.66h-29v20a8.28,8.28,0,0,0,2.16,5.38q2,2.07,6.76,2.29,6.09.07,10.82-.28t9.2-1.12v7.8q-4.6.49-9.61.81t-11.09.18q-6.9-.35-11-3.59t-4.46-10.55Zm24.22,5.06V72.35h4.67V82.47Zm7.31,0V72.35h4.67V82.47Z"/><path class="cls-1" d="M272.9,96.89a63.92,63.92,0,0,1-8.76,15.61,48.36,48.36,0,0,1-10.72,10.58,40.23,40.23,0,0,1-9.94,5.17,37,37,0,0,1-9.33,1.76V77.69h7.51v42.68a22.62,22.62,0,0,0,9.27-4.64,48.53,48.53,0,0,0,7.68-8,61.76,61.76,0,0,0,6.53-10.86Z"/><path class="cls-1" d="M280.88,86.34l3.65,21.3H279l-3.45-21.3ZM280,130.57V124a22.94,22.94,0,0,0,11.26-5.59,29.86,29.86,0,0,0,7.44-10,63.05,63.05,0,0,0,3.82-10.86,82.63,82.63,0,0,0,1.89-11h6a83.43,83.43,0,0,1-1.25,9.46,70,70,0,0,1-2.91,10.41,42.72,42.72,0,0,1-5.75,10.76,36.92,36.92,0,0,1-9.1,8.82A28,28,0,0,1,280,130.57Zm12.11-44.23,3.72,21.3h-5.61l-3.45-21.3Z"/><path class="cls-1" d="M314.65,85.71V78.18h16.57v7.52Zm41.26,5.13a57.3,57.3,0,0,1-8.29,18.28,49.45,49.45,0,0,1-11.43,12.09,43.12,43.12,0,0,1-11.19,6,50.19,50.19,0,0,1-10.35,2.32v-7.66a56.67,56.67,0,0,0,8.59-1.9,28.71,28.71,0,0,0,9.33-5.17,46.91,46.91,0,0,0,9-9.56,50.12,50.12,0,0,0,6.83-14.38Zm-41.26,12V95.27h16.57v7.52Zm32-14.41V78.26h4.67V88.38Zm7.31,0V78.26h4.67V88.38Z"/><path class="cls-1" d="M85.59,188.38l-3.18,4.44a68.65,68.65,0,0,0-5.72-6.37v15.19H71.37v-15a45.16,45.16,0,0,1-8.84,10.75A18.56,18.56,0,0,0,59,193.13a32.87,32.87,0,0,0,6.07-5.78,44.85,44.85,0,0,0,5.2-7.66H60.39v-5.06h11v-5.81H60.22v-5.06h6.13a31.37,31.37,0,0,0-2.08-8.25l4-1.12H61v-4.94H71.37v-6.06h5.32v6.06H87v4.94H79.87L84,155.44q-2.2,6-3.24,8.31h6.88v5.06h-11v5.81H87.15v5.06H76.69v1.06q.92.75,2.77,2.31t3.84,3.31Zm-6.53-34H68.54a27.59,27.59,0,0,1,2.37,8.38l-3.47,1h13l-4-1A55.91,55.91,0,0,0,79.06,154.38Zm35,9.81v5.5h-6.24v31.69h-5.32V169.69H94.83v.56q0,21.63-9.25,31.69a10,10,0,0,0-1.7-2.25,11.33,11.33,0,0,0-2.17-1.87,26.53,26.53,0,0,0,4.22-6.28,30,30,0,0,0,2.43-7.31,59.76,59.76,0,0,0,1-7q.23-3.12.23-7.06V148.06l3.7,1.13q11.1-2.87,15.72-5.5l4.45,4.31q-6.59,3.25-18.61,5.81v10.38Z"/><path class="cls-1" d="M117.81,200.48v-8.09A36.2,36.2,0,0,0,129.42,186a44.08,44.08,0,0,0,9.79-11.14,95.52,95.52,0,0,0-13.68-11v-8.72a124.89,124.89,0,0,1,17.34,13.15A76,76,0,0,0,147,157.13q1.49-5.31,2.44-9.67h7.72a108.2,108.2,0,0,1-2.78,11.36,97.69,97.69,0,0,1-5.62,13.89q2.3,2.67,4.4,4.89t3.59,4V193.8a132.5,132.5,0,0,0-11.86-14.13,80.12,80.12,0,0,1-8.43,9.7,49.36,49.36,0,0,1-9.42,7.07A36.29,36.29,0,0,1,117.81,200.48Z"/><path class="cls-1" d="M167.87,156.74v-7.59h17.88v7.59ZM209.19,161a55.17,55.17,0,0,1-8.2,18.32,48.8,48.8,0,0,1-11.52,12.09,44.22,44.22,0,0,1-11.25,5.94,50.33,50.33,0,0,1-10.36,2.32v-7.95a37,37,0,0,0,8.6-1.69,30.66,30.66,0,0,0,9.35-5.17,45.32,45.32,0,0,0,9-9.49A50.1,50.1,0,0,0,201.67,161Z"/><path class="cls-1" d="M211,198.86q1.42-3.59,3.08-9A104.75,104.75,0,0,0,217,177.1a101,101,0,0,0,1.35-16.42v-13h7.25v13a129.73,129.73,0,0,1-1,17,82.92,82.92,0,0,1-2.44,12.27q-1.46,4.92-2.95,8.93Zm42.82,0h-7.72a45.36,45.36,0,0,1-3.42-9,108.53,108.53,0,0,1-2.4-12.23,117.58,117.58,0,0,1-1.08-17v-13h7.25v13a100.6,100.6,0,0,0,1.35,16.42,103.88,103.88,0,0,0,2.95,12.8Q252.41,195.28,253.83,198.86ZM251,157.94V147.81h4.67v10.13Zm7.32,0V147.81H263v10.13Z"/><path class="cls-1" d="M260.35,176.92v-7.66h29.81v7.66Z"/><path class="cls-2" d="M238.44,65.33c-.5.5-.69-.11-1.35-.22s-.65-.19-1.3-.3-.66-.05-1.32-.16-.64-.22-1.3-.33-.66,0-1.32-.15-.64-.19-1.3-.3-.67,0-1.32-.13-.69.14-1.34,0-.64-.21-1.3-.32-.64-.25-1.29-.36-.67,0-1.32-.12-.65-.15-1.31-.26-.65-.17-1.3-.27-.66,0-1.32-.14-.66,0-1.32-.15l-1.31-.2c-.66-.1-.66-.08-1.32-.18s-.67,0-1.33-.09-.62-.4-1.28-.5l-1.31-.2c-.66-.11-.69.17-1.35.06s-.64-.2-1.3-.3-.65-.19-1.3-.29-.65-.16-1.3-.26-.68.06-1.33,0l-1.31-.19c-.66-.1-.64-.2-1.3-.3l-1.31-.2c-.66-.1-.65-.13-1.31-.23s-.64-.2-1.3-.3-.66-.05-1.32-.16-.68.07-1.34,0l-1.31-.21c-.66-.1-.64-.24-1.3-.34s-.65-.17-1.3-.27-.68.13-1.34,0-.63-.3-1.29-.4-.66,0-1.32-.15-.64-.21-1.3-.31-.66-.06-1.32-.17a5.47,5.47,0,0,0-1.32,0,5.53,5.53,0,0,0-1.3.19c-.66.1-.68-.08-1.33,0s-.67,0-1.32.12-.65.19-1.3.29-.63.33-1.28.44-.66,0-1.32.14-.65.19-1.3.29-.68-.09-1.34,0-.64.21-1.3.32-.68-.06-1.33,0-.64.25-1.29.35-.66.07-1.32.18-.68-.06-1.33,0-.64.2-1.3.3l-1.31.22c-.66.11-.66.09-1.31.19s-.63.32-1.29.42-.67,0-1.32.11l-1.31.22c-.66.11-.69-.13-1.34,0s-.62.38-1.28.48-.65.15-1.31.26l-1.31.2c-.66.1-.66.06-1.32.17s-.67,0-1.32.13-.65.19-1.3.29-.67,0-1.32.12-.68-.06-1.33,0-.64.22-1.3.33-.65.13-1.31.23-.65.13-1.31.23-.67,0-1.33.06-.66.06-1.32.16-.62.44-1.27.54-.69-.16-1.34-.05-.65.19-1.3.3-.67,0-1.32.13-.65.18-1.3.29-.64.23-1.3.33-.65.16-1.31.27-.86.56-1.36.07,0-.78,0-1.54-.1-.76-.1-1.51,0-.76,0-1.51.08-.76.08-1.51-.18-.76-.18-1.51.23-.76.23-1.51-.06-.76-.06-1.51-.15-.76-.15-1.51.19-.76.19-1.51-.21-.76-.21-1.51,0-.76,0-1.51.11-.76.11-1.51.07-.76.07-1.51-.07-.76-.07-1.51,0-.76,0-1.51-.05-.76-.05-1.51.05-.76.05-1.51-.13-.76-.13-1.51.23-.76.23-1.51,0-.76,0-1.51-.19-.76-.19-1.51.09-.76.09-1.51,0-.76,0-1.51.1-.76.1-1.51-.17-.76-.17-1.51,0-.76,0-1.51,0-.76,0-1.51-.06-.76-.06-1.51.11-.76.11-1.51-.06-.76-.06-1.51,0-.76,0-1.51,0-.76,0-1.51.14-.76.14-1.51-.14-.76-.14-1.51,0-.76,0-1.51,0-.76,0-1.51,0-.76,0-1.51,0-.76,0-1.51.08-.76.08-1.51-.21-.76-.21-1.51.13-.76.13-1.51.09-.76.09-1.51-.63-1.08-.13-1.58.7.23,1.35.34.67,0,1.32.11.66,0,1.32.15.63.3,1.29.41.66.05,1.32.16.65.15,1.31.25.68-.09,1.33,0,.63.32,1.28.43.67,0,1.32.12.68-.05,1.33.05.64.22,1.3.33l1.31.2c.66.1.66.07,1.32.18l1.31.2c.66.1.65.15,1.31.25s.67,0,1.33.09.65.16,1.31.27.67,0,1.32.12.65.15,1.31.26l1.31.23c.66.1.62.36,1.28.47s.69-.16,1.34-.05.65.13,1.31.23.64.26,1.29.37.69-.13,1.34,0,.62.36,1.28.47.65.14,1.31.25l1.31.21c.66.11.68-.09,1.34,0l1.31.2c.66.1.67,0,1.33.09s.62.38,1.28.49.67,0,1.32.11.64.21,1.3.32.67,0,1.32.14.68-.08,1.34,0,.63.3,1.29.41.68-.08,1.34,0,.63.29,1.29.39.68-.08,1.34,0,.63.32,1.3.32a5.64,5.64,0,0,0,1.32-.08c.66-.1.66,0,1.32-.15s.65-.18,1.3-.28.65-.15,1.31-.25l1.31-.21c.66-.1.64-.24,1.29-.34s.65-.18,1.3-.29.69.21,1.35.1l1.31-.19c.66-.1.62-.44,1.27-.54s.69.14,1.34,0l1.31-.22c.66-.1.63-.32,1.28-.43s.69.17,1.35.07.63-.27,1.29-.37.68.1,1.34,0,.63-.35,1.28-.45.65-.16,1.31-.26.69.15,1.34,0,.66-.05,1.32-.16.65-.18,1.3-.28.65-.16,1.31-.26.64-.26,1.29-.36.66,0,1.32-.14.66-.08,1.32-.18.65-.13,1.31-.24.65-.18,1.3-.28.65-.15,1.31-.25.66-.06,1.32-.16.66,0,1.32-.15.65-.18,1.3-.28.69.19,1.35.09l1.31-.22c.66-.1.63-.3,1.29-.41s.64-.24,1.3-.34.69.16,1.35.06l1.31-.22c.66-.11.65-.18,1.3-.28s.64-.22,1.3-.32.67,0,1.32-.12.75-.61,1.25-.11.08.67.08,1.43-.14.76-.14,1.51,0,.76,0,1.51,0,.76,0,1.51,0,.76,0,1.51-.08.76-.08,1.51.21.76.21,1.51,0,.76,0,1.51-.22.76-.22,1.51.23.76.23,1.51-.08.76-.08,1.51-.11.76-.11,1.51,0,.76,0,1.51.1.76.1,1.51-.13.76-.13,1.51.24.76.24,1.51,0,.76,0,1.51-.19.76-.19,1.51.22.76.22,1.51-.08.76-.08,1.51-.12.76-.12,1.51-.07.76-.07,1.51.29.76.29,1.51-.18.76-.18,1.51.17.76.17,1.51-.26.76-.26,1.51.08.76.08,1.51.14.76.14,1.51-.16.76-.16,1.51.08.76.08,1.51,0,.76,0,1.51,0,.76,0,1.51.12.76.12,1.51-.28.76-.28,1.51.12.76.12,1.51,0,.76,0,1.51,0,.76,0,1.51.06.76.06,1.51.13.76.13,1.51,0,.76,0,1.51-.26.76-.26,1.51a5,5,0,0,0,.14,1.51C238.57,64.59,238.94,64.83,238.44,65.33Z"/><path class="cls-1" d="M144.46,50.64l-3.35-2.1A15.42,15.42,0,0,0,147,40.21l3.56,1.14Q148.4,47.74,144.46,50.64Zm2.43-25.07V25a34,34,0,0,1-2.89,2,11.71,11.71,0,0,0-2.85-3.11A29,29,0,0,0,148,18.8,27.45,27.45,0,0,0,152.59,13l4.32,1.32c-.7,1-1.19,1.77-1.47,2.16L166,17.61l.63,0,2.77,1.84a34.83,34.83,0,0,1-3.52,4.25l9.18.65v12.9l-14.83.33a25.9,25.9,0,0,1,5.24,2.87l-2.68,2.66a17.44,17.44,0,0,0-3.25-2.11,34.09,34.09,0,0,0-4.29-2l1.34-1.34-10.48.23V34.56l25-.06V32l-23.63-.37V28.53l23.63.8V26.83Zm16.93-5.31-10.69-1A35.5,35.5,0,0,1,150,22.52l11.31.8A38,38,0,0,0,163.82,20.27ZM158.5,46.86l6.29-.51a1.81,1.81,0,0,0,1.59-.82,9.67,9.67,0,0,0,.5-3.27,8.48,8.48,0,0,0,3.44,1q-.29,3.38-1.36,4.6a5.63,5.63,0,0,1-3.79,1.52L158,50.1q-3.48.36-4.61-.45t-1.13-3.46v-5.6l3.85-.15v5.43q0,.75.44.94A5.1,5.1,0,0,0,158.5,46.86Zm11-6.27,3.31-1.74a51.65,51.65,0,0,1,4.42,3.37,21.35,21.35,0,0,1,3.29,3.24l-3.6,2a21.93,21.93,0,0,0-3.12-3.34A43.4,43.4,0,0,0,169.52,40.59Z"/><path class="cls-1" d="M228.09,38.44l-8.17-.18a29.33,29.33,0,0,0,9.35,4.64,11.38,11.38,0,0,0-2.49,3,25.8,25.8,0,0,1-5.55-2.84q-.57,6.24-1.8,7.43a4.29,4.29,0,0,1-2.82.81q-1.59,0-4.94-.42a7.34,7.34,0,0,0-.94-3.06q2.25.35,4.29.5a2.24,2.24,0,0,0,1.35-.22q.65-.59,1-3.81l-8.29-.42A9.81,9.81,0,0,1,204.72,48a24.19,24.19,0,0,1-8.29,2,8.08,8.08,0,0,0-1.92-2.8q7.8-.64,10.29-3.53l-7.56-.39V42a37.21,37.21,0,0,1-4.94,1.65,6.28,6.28,0,0,0-1-1.33,8,8,0,0,0-1.25-1.15,28.09,28.09,0,0,0,8.58-3.36l-7.56-.16V35L202,35.1a11.25,11.25,0,0,0,1.31-1.82l-7.43,0V23.15l27.69-1.57V33.23l-16.09,0a19.32,19.32,0,0,1-1.18,1.86l21.81.16ZM200.72,22.36V20.7l-9,.62V18.65l9-.75V15.62l3.76-.36v2.33l10-.83V14.32l3.84-.36v2.49l9.11-.75v3.19l-9.11.62v1.81l-3.84.23V19.76l-10,.68v1.69Zm-1.14,2.77v2l20.1-.7V24.22Zm0,4v2l20.1-.27V28.63ZM210,41.21l9,.34a25.21,25.21,0,0,1-3.68-3.39l-11.6-.25a23.15,23.15,0,0,1-4.08,2.91l6.49.24a13.62,13.62,0,0,0,.57-2.45l3.8.09Q210.36,39.76,210,41.21Z"/><path class="cls-1" d="M290.34,209a.68.68,0,0,1-.17.48.73.73,0,0,1-.44.27l-2,.42q-.91.2-2.16.51t-2.71.72l-.06.13a36.91,36.91,0,0,1-2.14,6.08,27.88,27.88,0,0,1-2.92,5,18.56,18.56,0,0,1-9.91,6.84,8.38,8.38,0,0,1-1.7.3,5.5,5.5,0,0,1-1.73-.15A5.25,5.25,0,0,1,263,229a4,4,0,0,1-1.1-.94,4.49,4.49,0,0,1-1-2.53,7.7,7.7,0,0,1,.58-3.3q1.36-3.31,6.15-6.18a39,39,0,0,1,4.14-2.15q2.3-1,5.09-2,.3-1.06.53-2.06l.44-1.92a64.68,64.68,0,0,0,1.08-8.5q.11-1.67.14-3.23t0-3q-1.59.81-3.17,1.69t-3,1.88a25.3,25.3,0,0,0-2.72,2.14,15.35,15.35,0,0,0-2.21,2.47,7.63,7.63,0,0,0-.63,1,9.06,9.06,0,0,0-.51,1.14,6.52,6.52,0,0,0-.31,1.18,4,4,0,0,0,0,1.12,2.22,2.22,0,0,0,1,1.65,1.72,1.72,0,0,0,1.41.32,2.58,2.58,0,0,0,1.22-.69,4.09,4.09,0,0,0,.85-1.22,2.77,2.77,0,0,0,.29-1.29.49.49,0,0,1,.43-.58,2,2,0,0,1,1,.08,2.17,2.17,0,0,1,.91.56.88.88,0,0,1,.27.85,4.06,4.06,0,0,1-1,1.81,6.22,6.22,0,0,1-1.86,1.34,5.82,5.82,0,0,1-2.19.56,3.39,3.39,0,0,1-3.57-3,4.4,4.4,0,0,1,0-1.46,8.55,8.55,0,0,1,.41-1.46,11.7,11.7,0,0,1,.61-1.36,10.17,10.17,0,0,1,.71-1.15,18.55,18.55,0,0,1,2.8-3,30,30,0,0,1,3.86-2.84l1.18-.8q.9-.62,2.07-1.37t2.49-1.51a25.25,25.25,0,0,1,2.42-1.24,5.23,5.23,0,0,1,1.85-.51q.75,0,.82.66.06.52.13,1.45t.12,2.19q0,1.26,0,2.75t-.08,3.16A54.64,54.64,0,0,1,283.2,210q1.39-.37,2.58-.65l2.05-.47q.86-.19,1.83-.38a.48.48,0,0,1,.48.09A.6.6,0,0,1,290.34,209ZM263,227.19a1.86,1.86,0,0,0,1.7.35,8.54,8.54,0,0,0,2.37-.86,15.47,15.47,0,0,0,2.45-1.6,11.75,11.75,0,0,0,1.9-1.84,23.68,23.68,0,0,0,3-4.74,37.75,37.75,0,0,0,2-5.08,42.85,42.85,0,0,0-9.25,4.4,11.79,11.79,0,0,0-4.52,4.77Q261.48,225.43,263,227.19Z"/><path class="cls-1" d="M299.32,199.4a1.15,1.15,0,0,1-.16.76.87.87,0,0,1-.79.53,1.06,1.06,0,0,1-.72-.22.85.85,0,0,1-.35-.67.89.89,0,0,1,.12-.5,1.46,1.46,0,0,1,.35-.41q-.29-.44-.63-.42a1.29,1.29,0,0,0-.72.32,4.61,4.61,0,0,0-.76.79q-.38.5-.75,1a15.42,15.42,0,0,0-1.21,2.11,21.77,21.77,0,0,0-1,2.44,18.49,18.49,0,0,0-.65,2.46,9.76,9.76,0,0,0-.19,2.19,3.71,3.71,0,0,0,.36,1.6,1.29,1.29,0,0,0,1,.71,1.31,1.31,0,0,0,1.07-.5,8.33,8.33,0,0,0,1.13-1.45q.56-.88,1.08-1.91t.9-1.9a1.68,1.68,0,0,1-1-.91,2.65,2.65,0,0,1-.24-1.35,2.42,2.42,0,0,1,.46-1.24,1.33,1.33,0,0,1,1-.58h.59a.9.9,0,0,1,.64.31,1.67,1.67,0,0,1,.35,1,6.5,6.5,0,0,1-.25,2,5.92,5.92,0,0,0,2.07-.47,4.38,4.38,0,0,0,1.19-.78,2.11,2.11,0,0,0,.55-.8A3.11,3.11,0,0,1,303,203a.44.44,0,0,1,.29-.29.59.59,0,0,1,.41,0,.63.63,0,0,1,.31.29.59.59,0,0,1,0,.47,3.38,3.38,0,0,1-.75,1.19,5.2,5.2,0,0,1-1.24.95,7.18,7.18,0,0,1-1.6.64,7.26,7.26,0,0,1-1.8.26q-.4,1-1,2.31a14.31,14.31,0,0,1-1.49,2.39,8.87,8.87,0,0,1-1.91,1.85,3.74,3.74,0,0,1-2.3.71,3.53,3.53,0,0,1-2.63-1.23,5,5,0,0,1-1.15-2.88,11.94,11.94,0,0,1,.12-2.74,14.54,14.54,0,0,1,.73-2.84,14.72,14.72,0,0,1,1.3-2.67,11.33,11.33,0,0,1,1.79-2.24,8,8,0,0,1,2.24-1.53,6.32,6.32,0,0,1,2.6-.56,2.21,2.21,0,0,1,1,.22,2.36,2.36,0,0,1,.7.55,2.51,2.51,0,0,1,.43.73A6.25,6.25,0,0,1,299.32,199.4Z"/><path class="cls-1" d="M310.9,204.39q-.44,1-1,2.12t-1.33,2.28A20.77,20.77,0,0,1,307,210.9a10,10,0,0,1-1.6,1.59,2.89,2.89,0,0,1-1.6.67,1.9,1.9,0,0,1-1.14-.2,2.18,2.18,0,0,1-.81-.79,3.67,3.67,0,0,1-.46-1.28,6.91,6.91,0,0,1-.09-1.65,13,13,0,0,1,.38-2.31q.31-1.23.74-2.46t.87-2.39q.45-1.15.77-2.09a10.69,10.69,0,0,0,.44-1.56q.11-.63-.13-.84t.19-.47a2.35,2.35,0,0,1,1.08-.35A2.87,2.87,0,0,1,307,197a2,2,0,0,1,1.06,1.25,4,4,0,0,1,0,2.3,18.44,18.44,0,0,1-.94,2.88q-.62,1.51-1.35,3t-1.2,2.63a6.25,6.25,0,0,0-.52,1.83q0,.67.7.57a1.62,1.62,0,0,0,.8-.57,14,14,0,0,0,1.06-1.32q.58-.8,1.18-1.78t1.14-2q.54-1,.95-1.85a10.47,10.47,0,0,0,.58-1.44.49.49,0,0,1,.31-.34.7.7,0,0,1,.42,0,.56.56,0,0,1,.32.24.4.4,0,0,1,0,.42Q311.34,203.4,310.9,204.39Zm-2-10.09q.16-.4.35-.8c.13-.27.24-.53.35-.77a1.38,1.38,0,0,0,.15-.56,1.88,1.88,0,0,0-.56-1.31,3.28,3.28,0,0,0-1.13-.73,2.81,2.81,0,0,0-1.11-.2c-.33,0-.48.1-.48.25a1.3,1.3,0,0,1-.17.56l-.4.81q-.22.44-.4.82a1.41,1.41,0,0,0-.16.61,1.87,1.87,0,0,0,.59,1.33,3.31,3.31,0,0,0,1.17.72,3,3,0,0,0,1.14.18q.52,0,.51-.29A1.62,1.62,0,0,1,308.94,194.31Z"/><path class="cls-1" d="M323,199.9a8.71,8.71,0,0,1-.36,2.36q-.36,1.25-.83,2.45t-1,2.29a18.57,18.57,0,0,0-.73,1.89,2.94,2.94,0,0,0-.18,1.27q.07.47.73.44a1.47,1.47,0,0,0,.79-.52,11.06,11.06,0,0,0,1.08-1.3q.58-.8,1.2-1.8t1.15-2q.54-1,.95-1.87a11.25,11.25,0,0,0,.58-1.45.49.49,0,0,1,.31-.34.7.7,0,0,1,.42,0,.56.56,0,0,1,.32.24.4.4,0,0,1,0,.42c-.16.38-.38.9-.67,1.56s-.64,1.37-1,2.12-.85,1.51-1.33,2.28a20.62,20.62,0,0,1-1.51,2.11,10,10,0,0,1-1.6,1.59,2.89,2.89,0,0,1-1.6.67,1.65,1.65,0,0,1-1.13-.25,2.57,2.57,0,0,1-.8-.89,4.45,4.45,0,0,1-.48-1.3,5.19,5.19,0,0,1-.1-1.48,12.6,12.6,0,0,1,.48-2.68q.39-1.33.86-2.55t.94-2.24a13.82,13.82,0,0,0,.69-1.77,2.25,2.25,0,0,0,.12-1.13c-.07-.26-.33-.36-.79-.32a2.21,2.21,0,0,0-1,.63,14.49,14.49,0,0,0-1.35,1.45q-.72.87-1.45,1.91t-1.3,2q-.55,1.31-1.15,2.6t-1.06,2.43a13.59,13.59,0,0,0-.66,2,1.84,1.84,0,0,0,.05,1.31q.14.25-.18.55a1.43,1.43,0,0,1-.87.34,2,2,0,0,1-1.13-.28,2.27,2.27,0,0,1-.94-1.29,3.89,3.89,0,0,1-.08-2.06,21,21,0,0,1,.7-2.77q.48-1.48,1.08-3t1.09-2.85a18.15,18.15,0,0,0,.7-2.23q.21-.93-.06-1.17t.19-.47a2.38,2.38,0,0,1,1.09-.35,2.81,2.81,0,0,1,1.37.22,2,2,0,0,1,1,1.25,2.59,2.59,0,0,1,.15.92,6.51,6.51,0,0,1-.11,1.07q.58-.75,1.18-1.44a11.19,11.19,0,0,1,1.23-1.21,7.54,7.54,0,0,1,1.23-.85,2.81,2.81,0,0,1,1.19-.36,2,2,0,0,1,2,1A4.82,4.82,0,0,1,323,199.9Z"/><path class="cls-1" d="M351.14,200.72q-.23.57-.67,1.56t-1,2.12q-.61,1.13-1.33,2.28a20.77,20.77,0,0,1-1.51,2.11,10,10,0,0,1-1.6,1.59,2.89,2.89,0,0,1-1.6.67,1.9,1.9,0,0,1-1.14-.2,2.19,2.19,0,0,1-.81-.79,3.67,3.67,0,0,1-.46-1.28,6.91,6.91,0,0,1-.09-1.65,1.41,1.41,0,0,1,0-.31l0-.31q-.57.95-1.19,1.81a15.21,15.21,0,0,1-1.27,1.56,7.18,7.18,0,0,1-1.31,1.12,2.65,2.65,0,0,1-1.28.46,1.9,1.9,0,0,1-1.14-.2,2.19,2.19,0,0,1-.81-.79,3.71,3.71,0,0,1-.46-1.28,7,7,0,0,1-.09-1.65,13.1,13.1,0,0,1,.38-2.31q.31-1.23.74-2.46t.87-2.39q.44-1.15.77-2.09a10.82,10.82,0,0,0,.44-1.56q.11-.63-.13-.84t.19-.47a2.35,2.35,0,0,1,1.08-.35,2.87,2.87,0,0,1,1.37.22,2,2,0,0,1,1.06,1.25,4,4,0,0,1,0,2.3,18.65,18.65,0,0,1-.94,2.88q-.62,1.51-1.35,3t-1.2,2.63a6.31,6.31,0,0,0-.52,1.83c0,.45.2.64.7.57q.39-.05,1.1-.88a18,18,0,0,0,1.48-2q.77-1.2,1.5-2.53t1.2-2.37q.43-1.17.85-2.24t.71-2a10.08,10.08,0,0,0,.4-1.48q.1-.59-.14-.78c-.16-.12-.1-.28.19-.47a2.34,2.34,0,0,1,1.08-.35,2.87,2.87,0,0,1,1.37.22,2,2,0,0,1,1.07,1.25,4,4,0,0,1,0,2.3,18.54,18.54,0,0,1-.94,2.88q-.62,1.51-1.35,3t-1.2,2.63a6.25,6.25,0,0,0-.52,1.83q0,.67.7.57a1.73,1.73,0,0,0,.79-.57,12.61,12.61,0,0,0,1.07-1.32q.58-.8,1.18-1.78t1.14-2q.54-1,.95-1.85a10.47,10.47,0,0,0,.58-1.44.49.49,0,0,1,.31-.34.7.7,0,0,1,.42,0,.56.56,0,0,1,.32.24A.4.4,0,0,1,351.14,200.72Z"/><path class="cls-1" d="M354.44,209.77l0,0a8.61,8.61,0,0,1-1.34.63,4,4,0,0,1-1.1.26,2.8,2.8,0,0,1-2-.56,3.24,3.24,0,0,1-1-1.53,4.34,4.34,0,0,1-.16-1.82,2.71,2.71,0,0,1,.54-1.44,3.94,3.94,0,0,1,1.13-1,1.58,1.58,0,0,1,.87-.21,1.2,1.2,0,0,1,.68.26.82.82,0,0,1,.34.64,1,1,0,0,1-.27.73,1,1,0,0,1-.69.33,1,1,0,0,1-.56-.15.9.9,0,0,1-.38-.45,2.73,2.73,0,0,0-.52,1.21,3.36,3.36,0,0,0,0,1.31,2,2,0,0,0,.56,1,1.56,1.56,0,0,0,1.15.41,1.88,1.88,0,0,0,.74-.28,3.44,3.44,0,0,0,1-.87,5.56,5.56,0,0,0,.82-1.52,6.48,6.48,0,0,0,.36-2.19,11.14,11.14,0,0,0-.44-3,17.46,17.46,0,0,0-1.57-3.74q-.29.64-.66,1.39t-.66,1.43a.58.58,0,0,1-.38.28.79.79,0,0,1-.43,0,.5.5,0,0,1-.29-.25.44.44,0,0,1,0-.41c.15-.38.3-.72.44-1s.27-.59.41-.86.27-.54.38-.82l.38-.89a4.29,4.29,0,0,1-.88-2.41,3,3,0,0,1,.07-.74,3.17,3.17,0,0,1,.34-.9,2.41,2.41,0,0,1,.73-.79,2.34,2.34,0,0,1,1.25-.38,1.68,1.68,0,0,1,1.21.3,1.33,1.33,0,0,1,.46.89,2.92,2.92,0,0,1-.16,1.24,7.37,7.37,0,0,1-.61,1.36l-.09.2a18.06,18.06,0,0,1,2.19,2.7,13.72,13.72,0,0,1,1.29,2.48,8.67,8.67,0,0,1,.56,2.23,6.77,6.77,0,0,1-.07,2,30.29,30.29,0,0,0,1.79-2.55A19.8,19.8,0,0,0,361,200a.56.56,0,0,1,.28-.33.57.57,0,0,1,.49.06.54.54,0,0,1,.3.34.63.63,0,0,1,0,.43,19.79,19.79,0,0,1-1.65,3.1q-1,1.46-2.12,2.93a16.46,16.46,0,0,1-1.75,1.86,9.2,9.2,0,0,1-2.1,1.42Z"/><path class="cls-1" d="M287.87,217.48c11.69-.65,23.37-1.22,35.07-1.64,5.85-.21,11.7-.38,17.55-.45q4.39-.07,8.78,0c1.46.06,2.93,0,4.39.16l2.19.15,2.17.35-2.17-.26-2.19-.06c-1.46-.06-2.92,0-4.38,0q-4.38.12-8.75.37c-5.83.32-11.66.73-17.49,1.19-11.65.91-23.29,2-34.92,3.13h0a1.5,1.5,0,1,1-.3-3Z"/><path class="cls-1" d="M317.91,152.3a2.21,2.21,0,0,0,.08.46,3.49,3.49,0,0,0,.14.43,2,2,0,0,1,.1.31.59.59,0,0,1,0,.24,1.77,1.77,0,0,0,.06.53,1.56,1.56,0,0,0,.24.53.47.47,0,0,1,.09.19,2.88,2.88,0,0,1,.07.33,3.72,3.72,0,0,0,.09.42c0,.18.07.27.09.36s0,.19.09.39.06.26.08.35,0,.2.09.4a1.06,1.06,0,0,1,0,.28,2.2,2.2,0,0,0,.07.48,1.55,1.55,0,0,0,.23.52.56.56,0,0,1,.09.2c0,.17.06.25.08.34s0,.2.09.4a3.44,3.44,0,0,1,.08.34c0,.1,0,.2.09.41s.07.28.1.37l.1.37c.05.2.09.31.12.4a3.41,3.41,0,0,1,.1.34.74.74,0,0,1,0,.25,1.7,1.7,0,0,0,.06.51,2.28,2.28,0,0,0,.16.46,1.44,1.44,0,0,1,.1.28c0,.19.08.29.1.38l.1.36a1.71,1.71,0,0,1,.05.3,2.55,2.55,0,0,0,.08.46,2.09,2.09,0,0,0,.18.48.89.89,0,0,1,.09.25,1.74,1.74,0,0,1,.06.31,3.28,3.28,0,0,0,.08.44l.1.38.1.36a2.37,2.37,0,0,1,.06.32,3.69,3.69,0,0,0,.09.43,3.22,3.22,0,0,0,.13.42,3.07,3.07,0,0,1,.1.32,2.46,2.46,0,0,0,.16.46,1.31,1.31,0,0,1,.1.27c0,.17.06.24.07.34s0,.21.09.41.07.27.09.35,0,.2.09.39a.85.85,0,0,1,0,.26,1.72,1.72,0,0,0,.06.5.6.6,0,0,0,.68.42.5.5,0,0,0,.42-.62.83.83,0,0,1,0-.26,1.79,1.79,0,0,0-.06-.51c0-.18-.06-.26-.09-.35s0-.2-.09-.39-.05-.25-.07-.34a3.88,3.88,0,0,0-.09-.41,2.56,2.56,0,0,0-.16-.46,1.16,1.16,0,0,1-.1-.27,3.45,3.45,0,0,0-.13-.42c0-.08-.06-.16-.1-.32a2.34,2.34,0,0,1-.06-.32,3.86,3.86,0,0,0-.09-.43l-.1-.38c0-.09-.05-.18-.1-.36a2.1,2.1,0,0,1-.06-.32,3.37,3.37,0,0,0-.08-.44,2.13,2.13,0,0,0-.18-.47,1,1,0,0,1-.1-.25,1.73,1.73,0,0,1-.05-.3,2.57,2.57,0,0,0-.08-.46c0-.19-.08-.29-.1-.38l-.1-.36a2.13,2.13,0,0,0-.16-.46,1.28,1.28,0,0,1-.1-.28.73.73,0,0,1,0-.25,1.78,1.78,0,0,0-.06-.51c-.05-.2-.09-.31-.12-.4s-.06-.17-.1-.34l-.1-.38L321,160c0-.17-.06-.26-.08-.34s0-.2-.09-.4-.06-.25-.08-.34,0-.2-.09-.4a1.54,1.54,0,0,0-.23-.52.54.54,0,0,1-.09-.2,1.26,1.26,0,0,1,0-.27,2.06,2.06,0,0,0-.07-.48c0-.17-.06-.25-.08-.34s0-.2-.09-.41-.06-.27-.08-.36l-.09-.39a2.73,2.73,0,0,1-.07-.33c0-.1,0-.21-.09-.42a1.54,1.54,0,0,0-.24-.53.44.44,0,0,1-.09-.19.58.58,0,0,1,0-.24,1.61,1.61,0,0,0-.05-.53,3.45,3.45,0,0,0-.14-.43,2,2,0,0,1-.1-.31,1.59,1.59,0,0,1,0-.29,2.44,2.44,0,0,0-.08-.47.58.58,0,0,0-.39-.4.59.59,0,0,0-.3,0,.5.5,0,0,0-.42.62A1.37,1.37,0,0,1,317.91,152.3Z"/><path class="cls-1" d="M364.35,174.39l-.34.23a1.05,1.05,0,0,1-.24.12,2,2,0,0,0-.46.24.5.5,0,0,0-.09.74.6.6,0,0,0,.8.13,1,1,0,0,1,.24-.12,2,2,0,0,0,.46-.24l.31-.21.34-.22.3-.19.36-.23a2.26,2.26,0,0,0,.37-.31,1.26,1.26,0,0,1,.22-.19,3.91,3.91,0,0,0,.35-.26,2.22,2.22,0,0,1,.27-.2,2.41,2.41,0,0,1,.28-.18,3.46,3.46,0,0,0,.38-.23l.32-.23.31-.22a2.54,2.54,0,0,1,.28-.17,3.55,3.55,0,0,0,.39-.23,1.94,1.94,0,0,0,.38-.33,1,1,0,0,1,.2-.18,1.6,1.6,0,0,1,.27-.16,3.06,3.06,0,0,0,.41-.24l.33-.23.31-.21a2.39,2.39,0,0,0,.37-.31,1.47,1.47,0,0,1,.23-.19.91.91,0,0,1,.23-.12,1.86,1.86,0,0,0,.47-.24l.34-.25.28-.21.32-.22.32-.22.3-.2.35-.22.3-.19.36-.23a1.5,1.5,0,0,0,.4-.39.57.57,0,0,1,.16-.16,1.19,1.19,0,0,1,.25-.14,2.32,2.32,0,0,0,.44-.24l.3-.19.36-.23.31-.2.34-.23.29-.18a4,4,0,0,0,.37-.23,1.44,1.44,0,0,0,.4-.4.46.46,0,0,1,.15-.15.72.72,0,0,1,.22-.11,1.74,1.74,0,0,0,.49-.25.49.49,0,0,0,.09-.74.61.61,0,0,0-.28-.19.59.59,0,0,0-.52.06.79.79,0,0,1-.22.11,1.76,1.76,0,0,0-.49.24,1.43,1.43,0,0,0-.4.4.49.49,0,0,1-.15.15l-.29.19a4.16,4.16,0,0,0-.37.23l-.31.21-.34.22-.3.19-.36.23a1.35,1.35,0,0,1-.25.14,2.14,2.14,0,0,0-.44.24,1.5,1.5,0,0,0-.4.39.57.57,0,0,1-.16.15l-.3.19-.36.23-.3.19-.35.23-.32.22-.32.22c-.18.12-.26.19-.34.25l-.28.21a.9.9,0,0,1-.23.12,2,2,0,0,0-.47.24,2.37,2.37,0,0,0-.37.31,1.27,1.27,0,0,1-.23.19l-.33.23-.31.22a1.76,1.76,0,0,1-.27.16,2.63,2.63,0,0,0-.41.24,2,2,0,0,0-.38.33,1,1,0,0,1-.2.18l-.28.17a3.13,3.13,0,0,0-.39.23l-.33.23-.31.22-.29.17a3.3,3.3,0,0,0-.38.23,4,4,0,0,0-.35.27,2.22,2.22,0,0,1-.26.2,2.27,2.27,0,0,0-.37.31,1.51,1.51,0,0,1-.22.19l-.3.19-.36.23Z"/><path class="cls-1" d="M342.6,142.44a.54.54,0,0,0-.67.38c0,.17-.06.25-.09.34s-.06.2-.1.4-.06.26-.09.35-.06.2-.1.4l-.08.38c0,.09,0,.19-.08.37s-.06.31-.07.41,0,.17-.07.35a.85.85,0,0,1-.09.24,1.67,1.67,0,0,0-.18.48,2.35,2.35,0,0,0-.06.47,1.35,1.35,0,0,1,0,.29c0,.19-.06.29-.09.39s0,.18-.08.36a1.44,1.44,0,0,1-.09.29,2.61,2.61,0,0,0-.14.44,1.8,1.8,0,0,0-.05.49,1,1,0,0,1,0,.28,2.18,2.18,0,0,1-.09.31,2.92,2.92,0,0,0-.13.43c0,.19-.06.29-.08.38s0,.18-.08.37a3.24,3.24,0,0,1-.09.32,3.41,3.41,0,0,0-.12.42,3.85,3.85,0,0,0-.07.43,2.4,2.4,0,0,1-.06.33,2.39,2.39,0,0,0-.06.48,1.12,1.12,0,0,1,0,.29c0,.17-.06.25-.09.34a3.88,3.88,0,0,0-.11.41c0,.18-.06.27-.09.36s-.05.19-.1.39a.85.85,0,0,1-.09.25,1.81,1.81,0,0,0-.17.47.56.56,0,0,0,.44.64.53.53,0,0,0,.67-.37,1,1,0,0,1,.09-.25,1.82,1.82,0,0,0,.17-.47c0-.18.06-.27.09-.36s.05-.19.1-.39a3,3,0,0,1,.09-.33c0-.1.06-.2.11-.4a2,2,0,0,0,.06-.48,1.29,1.29,0,0,1,0-.29,3.79,3.79,0,0,0,.07-.43,2.75,2.75,0,0,1,.06-.33,2.47,2.47,0,0,1,.09-.32,3.3,3.3,0,0,0,.12-.42c0-.19.07-.29.09-.39l.08-.36a2.6,2.6,0,0,1,.09-.31,3.19,3.19,0,0,0,.13-.43,2,2,0,0,0,.05-.5,1,1,0,0,1,0-.27,1.48,1.48,0,0,1,.09-.3,2.39,2.39,0,0,0,.14-.44c0-.19.06-.29.08-.39s0-.18.08-.36a2.42,2.42,0,0,0,.06-.47,1.3,1.3,0,0,1,0-.3.86.86,0,0,1,.09-.24,1.61,1.61,0,0,0,.18-.48c0-.2.06-.31.08-.41s0-.18.06-.35l.08-.38c0-.09,0-.19.08-.37s.06-.25.09-.34.06-.2.1-.4.06-.25.09-.34.06-.2.1-.4a.55.55,0,0,0-.39-.63Z"/><path class="cls-1" d="M338.88,159a.54.54,0,0,0-.67.37c0,.17-.06.24-.09.33s-.07.2-.11.41-.07.27-.09.36l-.09.39c0,.17-.06.25-.09.34s-.06.2-.1.4a1.11,1.11,0,0,1-.09.27,2,2,0,0,0-.15.46,1.51,1.51,0,0,0,0,.55.52.52,0,0,1,0,.23c0,.17-.06.25-.09.34s-.06.2-.1.4-.06.26-.09.34-.06.19-.1.4l-.08.38-.08.37c0,.2-.06.31-.08.41s0,.17-.07.34a.78.78,0,0,1-.09.24,1.71,1.71,0,0,0-.18.48,2.52,2.52,0,0,0-.06.47,1.21,1.21,0,0,1,0,.3c0,.19-.06.29-.08.39l-.08.36a1.51,1.51,0,0,1-.09.29,2.41,2.41,0,0,0-.14.44,2,2,0,0,0-.05.49.92.92,0,0,1,0,.27,3.11,3.11,0,0,1-.09.31,2.89,2.89,0,0,0-.12.42c0,.19-.06.29-.08.38l-.08.36a2.35,2.35,0,0,1-.09.32,2.87,2.87,0,0,0-.12.42,3.22,3.22,0,0,0-.07.43,2.81,2.81,0,0,1-.06.33,2.49,2.49,0,0,0-.06.48,1.23,1.23,0,0,1,0,.29c0,.17-.06.24-.09.33a4.15,4.15,0,0,0-.11.4c0,.18-.06.27-.09.35s-.05.19-.09.39a.89.89,0,0,1-.09.25,1.69,1.69,0,0,0-.17.48.56.56,0,0,0,.44.65.54.54,0,0,0,.67-.38.85.85,0,0,1,.09-.25,1.74,1.74,0,0,0,.17-.48c0-.18.06-.27.09-.35s.05-.2.1-.39a2.9,2.9,0,0,1,.09-.34c0-.09.06-.2.11-.41a2.42,2.42,0,0,0,.06-.48,1.2,1.2,0,0,1,0-.29,4,4,0,0,0,.07-.43,2.83,2.83,0,0,1,.06-.33,2.23,2.23,0,0,1,.09-.32,3.68,3.68,0,0,0,.12-.42c0-.19.06-.29.08-.38s0-.18.08-.36a2.43,2.43,0,0,1,.09-.31,3.24,3.24,0,0,0,.13-.43,1.92,1.92,0,0,0,.05-.49.89.89,0,0,1,0-.27,1.45,1.45,0,0,1,.09-.29,2.68,2.68,0,0,0,.14-.44c0-.19.06-.29.08-.39l.08-.36a2.2,2.2,0,0,0,.06-.47,1.32,1.32,0,0,1,0-.3.81.81,0,0,1,.09-.24,1.63,1.63,0,0,0,.18-.48c0-.21.06-.31.08-.41s0-.17.07-.34l.08-.38.08-.37c0-.17.06-.26.09-.34s.06-.2.1-.4.06-.25.09-.34.06-.2.1-.4a1.52,1.52,0,0,0,0-.55.55.55,0,0,1,0-.22,1.14,1.14,0,0,1,.09-.27,2.06,2.06,0,0,0,.15-.46c0-.17.06-.25.09-.34s.06-.2.11-.4.06-.27.09-.36,0-.19.09-.39a2.73,2.73,0,0,1,.09-.33c0-.1.07-.2.11-.41a.56.56,0,0,0-.39-.63Z"/><path class="cls-1" d="M301.38,162.79a1.64,1.64,0,0,1,.18.26,2.87,2.87,0,0,0,.28.39,1.78,1.78,0,0,0,.43.39.72.72,0,0,1,.17.15,1.58,1.58,0,0,1,.17.24,2.28,2.28,0,0,0,.28.4,3.32,3.32,0,0,0,.32.34,2.35,2.35,0,0,1,.22.24.66.66,0,0,1,.12.2,2,2,0,0,0,.29.47,1.7,1.7,0,0,0,.45.39.5.5,0,0,1,.16.14l.21.27a4.17,4.17,0,0,0,.27.35l.24.29.26.32c.12.14.17.21.22.28s.13.17.26.34a1.22,1.22,0,0,1,.16.24,2.27,2.27,0,0,0,.28.42,1.71,1.71,0,0,0,.44.39.56.56,0,0,1,.17.15l.22.29.26.34.22.29.26.34.26.31.25.3.29.33.24.27a.88.88,0,0,1,.14.22,2,2,0,0,0,.29.45,2.64,2.64,0,0,0,.35.35,1.7,1.7,0,0,1,.21.22l.26.31.25.29a1.78,1.78,0,0,1,.18.25,2.7,2.7,0,0,0,.28.39,2.17,2.17,0,0,0,.38.37,1.32,1.32,0,0,1,.2.19,3,3,0,0,1,.19.27,3.61,3.61,0,0,0,.27.37l.26.31.25.29c.11.13.15.19.2.27a3.74,3.74,0,0,0,.27.36,4.48,4.48,0,0,0,.3.33l.23.25a2.43,2.43,0,0,0,.35.36,1.25,1.25,0,0,1,.21.21l.22.28c.06.08.12.18.26.35l.24.29.26.32a.89.89,0,0,1,.14.22,2,2,0,0,0,.29.44.6.6,0,0,0,.8.12.5.5,0,0,0,.09-.74,1,1,0,0,1-.14-.22,2,2,0,0,0-.29-.44l-.23-.29-.26-.32a2.83,2.83,0,0,1-.22-.28c-.06-.08-.13-.18-.27-.34a2.55,2.55,0,0,0-.35-.36,1.57,1.57,0,0,1-.21-.21,4,4,0,0,0-.3-.33,3.06,3.06,0,0,1-.23-.25,2.69,2.69,0,0,1-.2-.27,3.57,3.57,0,0,0-.27-.37l-.26-.31-.25-.29a2.82,2.82,0,0,1-.2-.27,3.41,3.41,0,0,0-.27-.37A2.11,2.11,0,0,0,312,174a1,1,0,0,1-.2-.2,1.68,1.68,0,0,1-.18-.25,3.09,3.09,0,0,0-.28-.39l-.26-.31-.25-.29a2.41,2.41,0,0,0-.35-.36,1.48,1.48,0,0,1-.21-.22.81.81,0,0,1-.14-.21,2,2,0,0,0-.28-.45l-.29-.32-.24-.27-.25-.31-.25-.3-.22-.29c-.06-.08-.13-.17-.26-.34l-.22-.29c-.06-.08-.13-.17-.26-.34a1.73,1.73,0,0,0-.44-.39.58.58,0,0,1-.17-.15,1.15,1.15,0,0,1-.16-.24,2.59,2.59,0,0,0-.28-.42l-.22-.28c-.06-.08-.13-.17-.26-.34l-.24-.3-.26-.32a3.41,3.41,0,0,1-.21-.28c-.06-.09-.13-.18-.27-.35a1.64,1.64,0,0,0-.45-.39.54.54,0,0,1-.16-.14.68.68,0,0,1-.13-.21,1.82,1.82,0,0,0-.29-.47,3.6,3.6,0,0,0-.32-.34,2.16,2.16,0,0,1-.23-.24,1.81,1.81,0,0,1-.17-.25,2.67,2.67,0,0,0-.28-.4,1.8,1.8,0,0,0-.43-.38.57.57,0,0,1-.17-.16,1.74,1.74,0,0,1-.18-.26,2.87,2.87,0,0,0-.28-.38.61.61,0,0,0-.8-.12A.5.5,0,0,0,301.38,162.79Z"/><path class="cls-1" d="M350.08,166.64a.58.58,0,0,0,.77-.16.86.86,0,0,1,.17-.2,1.86,1.86,0,0,0,.32-.39l.2-.3.22-.33A3.32,3.32,0,0,1,352,165c.06-.08.12-.17.23-.34a2.07,2.07,0,0,0,.21-.43,1.24,1.24,0,0,1,.13-.25,4.14,4.14,0,0,0,.21-.38,2.24,2.24,0,0,1,.16-.29,2.5,2.5,0,0,1,.19-.27,3.49,3.49,0,0,0,.25-.35l.2-.33.19-.31a2.18,2.18,0,0,1,.19-.26,3.54,3.54,0,0,0,.26-.36,1.87,1.87,0,0,0,.21-.45,1,1,0,0,1,.11-.24,1.59,1.59,0,0,1,.18-.24,2.78,2.78,0,0,0,.27-.37l.2-.33.19-.31a2,2,0,0,0,.21-.42,1.4,1.4,0,0,1,.13-.26.82.82,0,0,1,.16-.2,1.75,1.75,0,0,0,.33-.39c.11-.18.16-.27.21-.36s.08-.15.17-.3l.2-.33.2-.32c.09-.15.14-.22.2-.29s.12-.17.23-.34.14-.22.2-.29.12-.17.23-.34a.52.52,0,0,0-.21-.73l-.11-.05a.56.56,0,0,0-.66.21c-.09.15-.14.22-.19.29s-.12.17-.23.34-.14.22-.19.29-.12.17-.23.34l-.2.33-.2.32c-.11.18-.16.27-.21.36s-.08.15-.17.3a.78.78,0,0,1-.16.2,1.72,1.72,0,0,0-.33.4,2.49,2.49,0,0,0-.21.42,1.29,1.29,0,0,1-.13.26l-.2.33-.19.31a1.8,1.8,0,0,1-.18.24,2.32,2.32,0,0,0-.28.37,1.91,1.91,0,0,0-.21.45.9.9,0,0,1-.11.24,2.09,2.09,0,0,1-.19.26,3,3,0,0,0-.26.36l-.2.33-.19.32a2.59,2.59,0,0,1-.19.27,2.77,2.77,0,0,0-.25.35,3.35,3.35,0,0,0-.21.37,2.59,2.59,0,0,1-.16.29,2.09,2.09,0,0,0-.21.43,1.27,1.27,0,0,1-.13.26,3.25,3.25,0,0,1-.19.28c-.06.08-.12.17-.23.35l-.2.3-.21.33a.85.85,0,0,1-.16.2,1.73,1.73,0,0,0-.32.39A.53.53,0,0,0,350.08,166.64Z"/><path class="cls-1" d="M341.84,179.83a.57.57,0,0,0,.77-.16,1,1,0,0,1,.17-.21,1.94,1.94,0,0,0,.32-.4l.2-.31.22-.34a2.93,2.93,0,0,1,.2-.29c.06-.08.13-.17.24-.35a2.08,2.08,0,0,0,.21-.43,1.2,1.2,0,0,1,.13-.26,3.12,3.12,0,0,0,.21-.38,2.81,2.81,0,0,1,.16-.29,2.43,2.43,0,0,1,.19-.27,3.87,3.87,0,0,0,.25-.36l.21-.34.2-.32a2.24,2.24,0,0,1,.19-.27,2.93,2.93,0,0,0,.26-.36,1.87,1.87,0,0,0,.21-.45,1,1,0,0,1,.12-.25,1.72,1.72,0,0,1,.19-.25,2.57,2.57,0,0,0,.28-.38l.21-.34.19-.32a2.13,2.13,0,0,0,.21-.42,1.46,1.46,0,0,1,.14-.27.76.76,0,0,1,.17-.2,1.8,1.8,0,0,0,.33-.4c.11-.18.16-.28.21-.36s.08-.16.18-.31l.2-.33.2-.32.2-.3.23-.35.2-.29.23-.35a.52.52,0,0,0-.21-.73l-.11-.05a.56.56,0,0,0-.66.21l-.2.29c-.06.09-.12.17-.23.35l-.2.3-.23.34-.21.33-.2.33c-.11.18-.16.27-.21.36s-.08.15-.18.3a.83.83,0,0,1-.17.2,1.75,1.75,0,0,0-.33.4,2.24,2.24,0,0,0-.21.42,1.53,1.53,0,0,1-.13.27l-.21.34-.19.32a1.77,1.77,0,0,1-.19.25,2.34,2.34,0,0,0-.28.37,1.81,1.81,0,0,0-.22.45.94.94,0,0,1-.12.25,2.19,2.19,0,0,1-.19.27,3.15,3.15,0,0,0-.26.37l-.21.34-.2.32a2.33,2.33,0,0,1-.19.27,4.31,4.31,0,0,0-.25.36,4.14,4.14,0,0,0-.21.38,2.48,2.48,0,0,1-.16.3,2.15,2.15,0,0,0-.21.43,1.21,1.21,0,0,1-.13.26l-.2.29c-.06.08-.13.17-.24.35l-.2.31-.22.34a1,1,0,0,1-.17.21,1.71,1.71,0,0,0-.33.4A.52.52,0,0,0,341.84,179.83Z"/><path class="cls-1" d="M328.66,146.35a.93.93,0,0,1,0,.28,2.42,2.42,0,0,1,0,.33,2.89,2.89,0,0,0,0,.45c0,.21,0,.3,0,.41s0,.19,0,.38a3.25,3.25,0,0,1,0,.34,3.4,3.4,0,0,0,0,.44,3.69,3.69,0,0,0,0,.44,2.81,2.81,0,0,1,0,.34,2.14,2.14,0,0,0,.05.49,1.47,1.47,0,0,1,0,.3,2.92,2.92,0,0,1,0,.35c0,.1,0,.21,0,.43s0,.28,0,.37,0,.2,0,.41a.86.86,0,0,1,0,.27,1.74,1.74,0,0,0-.06.51.58.58,0,0,0,.57.55.52.52,0,0,0,.56-.51.82.82,0,0,1,0-.27,1.82,1.82,0,0,0,.06-.51c0-.19,0-.28,0-.37s0-.2,0-.41,0-.26,0-.36,0-.21,0-.43a2.45,2.45,0,0,0-.05-.49,1.26,1.26,0,0,1,0-.3,3.94,3.94,0,0,0,0-.44,2.68,2.68,0,0,1,0-.34,2.46,2.46,0,0,1,0-.34,3.47,3.47,0,0,0,0-.44c0-.2,0-.3,0-.4s0-.19,0-.38a1.87,1.87,0,0,1,0-.33,3,3,0,0,0,0-.45,2,2,0,0,0-.06-.5,1.13,1.13,0,0,1,0-.29.56.56,0,0,0-.4-.52l-.17,0a.52.52,0,0,0-.56.5A2.17,2.17,0,0,0,328.66,146.35Z"/><path class="cls-1" d="M328.75,155.33c0,.18,0,.26,0,.35s0,.21,0,.42a1.22,1.22,0,0,1,0,.28,1.94,1.94,0,0,0,0,.48,1.49,1.49,0,0,0,.1.55.62.62,0,0,1,0,.22c0,.18,0,.26,0,.35s0,.21,0,.42,0,.26,0,.35,0,.2,0,.41,0,.29,0,.39,0,.19,0,.38,0,.32,0,.42,0,.17,0,.35a.8.8,0,0,1,0,.25,1.71,1.71,0,0,0-.06.51,2.4,2.4,0,0,0,0,.47,1.59,1.59,0,0,1,0,.3c0,.2,0,.29,0,.39s0,.19,0,.37a1.5,1.5,0,0,1,0,.3,2.47,2.47,0,0,0,0,.46,2,2,0,0,0,.06.5.92.92,0,0,1,0,.27,2.31,2.31,0,0,1,0,.32,3.59,3.59,0,0,0,0,.44v.39c0,.09,0,.19,0,.38a2.82,2.82,0,0,1,0,.33,3.06,3.06,0,0,0,0,.44,4.12,4.12,0,0,0,0,.44,2.67,2.67,0,0,1,0,.34,2,2,0,0,0,0,.48,1.28,1.28,0,0,1,0,.29,2.88,2.88,0,0,1,0,.34c0,.1,0,.21,0,.42s0,.27,0,.36,0,.2,0,.4a1,1,0,0,1,0,.26,1.74,1.74,0,0,0-.06.5.58.58,0,0,0,.57.55.52.52,0,0,0,.56-.5.81.81,0,0,1,0-.26,1.78,1.78,0,0,0,.06-.5c0-.18,0-.27,0-.36s0-.2,0-.4a3.4,3.4,0,0,1,0-.34c0-.1,0-.21,0-.42a2.21,2.21,0,0,0-.05-.48,1.19,1.19,0,0,1,0-.29,3.53,3.53,0,0,0,0-.43,3,3,0,0,1,0-.34,2.24,2.24,0,0,1,0-.33,3.36,3.36,0,0,0,0-.44c0-.2,0-.29,0-.39s0-.19,0-.37a2,2,0,0,1,0-.32,3.14,3.14,0,0,0,0-.44,1.91,1.91,0,0,0-.06-.5,1.1,1.1,0,0,1,0-.27,1.39,1.39,0,0,1,0-.31,2.46,2.46,0,0,0,0-.46c0-.2,0-.3,0-.39s0-.19,0-.37a2.52,2.52,0,0,0,0-.48,1.12,1.12,0,0,1,0-.29.73.73,0,0,1,0-.25,1.71,1.71,0,0,0,.06-.51c0-.21,0-.32,0-.41s0-.18,0-.35,0-.29,0-.39,0-.19,0-.38,0-.26,0-.35,0-.2,0-.41,0-.26,0-.35,0-.21,0-.41a1.53,1.53,0,0,0-.1-.55.53.53,0,0,1,0-.22,1.24,1.24,0,0,1,0-.28,2.21,2.21,0,0,0,0-.48c0-.18,0-.26,0-.35s0-.21,0-.42a.56.56,0,0,0-.4-.52l-.17,0A.51.51,0,0,0,328.75,155.33Z"/><path class="cls-1" d="M312.87,163.85a.93.93,0,0,1-.1-.24,1.84,1.84,0,0,0-.19-.48.6.6,0,0,0-.76-.26.49.49,0,0,0-.24.7.8.8,0,0,1,.1.24,2,2,0,0,0,.19.48c.09.16.13.24.17.33l.19.36c.08.15.12.23.16.31s.09.2.19.39a2.48,2.48,0,0,0,.28.41,1.32,1.32,0,0,1,.17.25,3.42,3.42,0,0,0,.23.38,2.36,2.36,0,0,1,.18.29,2.44,2.44,0,0,1,.15.3,3.25,3.25,0,0,0,.2.4l.2.35.19.33a2.81,2.81,0,0,1,.14.3,3,3,0,0,0,.19.41,2.09,2.09,0,0,0,.3.43,1.11,1.11,0,0,1,.16.23,1.71,1.71,0,0,1,.13.28,2.77,2.77,0,0,0,.19.43l.2.35.19.33a2.52,2.52,0,0,0,.27.41,1.5,1.5,0,0,1,.17.25.76.76,0,0,1,.09.24,1.94,1.94,0,0,0,.19.49c.1.19.16.29.22.37a3.5,3.5,0,0,1,.18.31l.19.35.19.34.16.32c0,.09.09.19.19.38a.61.61,0,0,0,.76.26.49.49,0,0,0,.24-.7l-.16-.32c0-.1-.09-.19-.19-.38l-.19-.35-.19-.34c-.1-.19-.16-.28-.22-.37s-.1-.15-.18-.31a.78.78,0,0,1-.09-.24,2,2,0,0,0-.19-.49,2.51,2.51,0,0,0-.27-.41,1.39,1.39,0,0,1-.16-.25l-.2-.35-.19-.33a2,2,0,0,1-.13-.28,2.65,2.65,0,0,0-.19-.43,2.18,2.18,0,0,0-.3-.43,1.08,1.08,0,0,1-.16-.23,2.19,2.19,0,0,1-.14-.3,3.87,3.87,0,0,0-.2-.41l-.2-.35-.19-.33a2.21,2.21,0,0,1-.14-.3,3.55,3.55,0,0,0-.2-.4,3.5,3.5,0,0,0-.23-.38,2.76,2.76,0,0,1-.18-.29,2.44,2.44,0,0,0-.28-.41,1.42,1.42,0,0,1-.17-.25c-.08-.15-.12-.23-.16-.31s-.09-.19-.19-.39l-.17-.33Z"/><path class="cls-1" d="M311.14,160.68a.7.7,0,0,1-.09-.22,1.7,1.7,0,0,0-.19-.48,2.45,2.45,0,0,0-.27-.4,1.34,1.34,0,0,1-.16-.24l-.19-.34-.18-.32a1.42,1.42,0,0,1-.12-.27,2.55,2.55,0,0,0-.19-.42,2.16,2.16,0,0,0-.29-.42,1.06,1.06,0,0,1-.15-.21,2.06,2.06,0,0,1-.13-.29,3.3,3.3,0,0,0-.19-.4l-.19-.34-.18-.32a2.66,2.66,0,0,1-.14-.29,4.3,4.3,0,0,0-.19-.4c-.11-.19-.17-.29-.23-.37a3.07,3.07,0,0,1-.17-.28,2.44,2.44,0,0,0-.27-.41,1,1,0,0,1-.16-.23c-.08-.15-.11-.22-.15-.3s-.09-.19-.19-.37l-.17-.32-.19-.36a.93.93,0,0,1-.09-.23,1.76,1.76,0,0,0-.19-.47.58.58,0,0,0-.33-.28.59.59,0,0,0-.43,0,.49.49,0,0,0-.24.7.8.8,0,0,1,.09.23,1.77,1.77,0,0,0,.19.48l.17.32.19.35c.08.15.11.22.15.3s.09.19.19.38a2.44,2.44,0,0,0,.27.41,1.23,1.23,0,0,1,.16.23,4.11,4.11,0,0,0,.23.37,2.59,2.59,0,0,1,.17.28,2.76,2.76,0,0,1,.14.29,3.44,3.44,0,0,0,.19.39l.19.34.18.33a2,2,0,0,1,.13.28,3.72,3.72,0,0,0,.19.4,2.13,2.13,0,0,0,.3.42,1.06,1.06,0,0,1,.15.22,1.38,1.38,0,0,1,.12.27,2.83,2.83,0,0,0,.19.43l.19.34.18.32a2.41,2.41,0,0,0,.27.4,1.31,1.31,0,0,1,.16.24.78.78,0,0,1,.09.22,1.74,1.74,0,0,0,.19.49c.1.18.16.28.21.36s.09.15.18.3a.61.61,0,0,0,.77.26.49.49,0,0,0,.24-.7c-.1-.19-.16-.28-.21-.36S311.22,160.83,311.14,160.68Z"/><path class="cls-1" d="M357.94,168.46a.59.59,0,0,0,.8,0,1,1,0,0,1,.2-.17,1.84,1.84,0,0,0,.4-.32l.26-.25.29-.28.25-.24c.07-.06.16-.14.3-.29a2.07,2.07,0,0,0,.3-.37,1.57,1.57,0,0,1,.18-.22,3.1,3.1,0,0,0,.28-.33,3,3,0,0,1,.22-.24,2.41,2.41,0,0,1,.24-.22,3.56,3.56,0,0,0,.32-.3l.27-.29.26-.27a1.92,1.92,0,0,1,.24-.21,3.33,3.33,0,0,0,.33-.3,1.92,1.92,0,0,0,.3-.39.86.86,0,0,1,.16-.21,1.34,1.34,0,0,1,.23-.2,2.71,2.71,0,0,0,.35-.31l.27-.28.25-.27a2.16,2.16,0,0,0,.3-.37,1.41,1.41,0,0,1,.18-.23.91.91,0,0,1,.2-.16,1.81,1.81,0,0,0,.41-.32c.15-.15.22-.23.28-.31s.11-.13.23-.25l.27-.28.26-.27.25-.25.3-.29.25-.24c.07-.07.15-.14.3-.29a1.45,1.45,0,0,0,.31-.45.45.45,0,0,1,.12-.18,1.14,1.14,0,0,1,.22-.18,2.22,2.22,0,0,0,.37-.31l.25-.24.3-.29.26-.26L370,157l.24-.23a4,4,0,0,0,.31-.29,1.41,1.41,0,0,0,.31-.47.46.46,0,0,1,.11-.17.5.5,0,0,0-.06-.75.64.64,0,0,0-.2-.11.57.57,0,0,0-.59.13,1.35,1.35,0,0,0-.31.47.46.46,0,0,1-.11.17l-.24.23a4.09,4.09,0,0,0-.31.29l-.26.26-.28.28-.25.24-.3.29a1,1,0,0,1-.21.18,2.13,2.13,0,0,0-.37.32,1.41,1.41,0,0,0-.31.45.49.49,0,0,1-.12.18l-.25.24-.3.29-.25.24-.3.29-.26.28-.26.27a3.7,3.7,0,0,0-.28.31l-.23.25a.77.77,0,0,1-.2.15,1.79,1.79,0,0,0-.41.33,2,2,0,0,0-.3.37,1.31,1.31,0,0,1-.18.22l-.27.29-.25.27a1.46,1.46,0,0,1-.23.2,2.76,2.76,0,0,0-.35.31,1.92,1.92,0,0,0-.3.39,1,1,0,0,1-.16.21,3,3,0,0,1-.24.21,2.68,2.68,0,0,0-.33.3l-.27.28-.26.27a2.28,2.28,0,0,1-.24.22,3.75,3.75,0,0,0-.32.3,3,3,0,0,0-.28.33,3.13,3.13,0,0,1-.22.25,2.3,2.3,0,0,0-.3.37,1.06,1.06,0,0,1-.17.22l-.25.24-.3.29-.26.26-.28.28a1,1,0,0,1-.2.16,1.66,1.66,0,0,0-.4.32A.51.51,0,0,0,357.94,168.46Z"/><path class="cls-1" d="M351.07,174.83l-.25.27a1.85,1.85,0,0,1-.23.2,2.63,2.63,0,0,0-.35.31,2,2,0,0,0-.3.39.82.82,0,0,1-.16.21,1.65,1.65,0,0,1-.24.22,4.17,4.17,0,0,0-.33.3l-.27.29-.25.27a2.93,2.93,0,0,1-.24.23,3,3,0,0,0-.32.3,3.73,3.73,0,0,0-.28.32l-.22.25a2,2,0,0,0-.3.37,1.32,1.32,0,0,1-.18.23l-.25.24c-.07.07-.16.14-.31.29l-.25.26L346,180a.9.9,0,0,1-.2.16,1.75,1.75,0,0,0-.4.32.51.51,0,0,0,.06.75.59.59,0,0,0,.8,0,.88.88,0,0,1,.21-.16,1.94,1.94,0,0,0,.4-.32l.26-.26.28-.28a3.36,3.36,0,0,1,.25-.24,4.09,4.09,0,0,0,.31-.29,2.27,2.27,0,0,0,.3-.37,1.29,1.29,0,0,1,.18-.22,3.28,3.28,0,0,0,.28-.33l.22-.25a2.89,2.89,0,0,1,.24-.22,3.49,3.49,0,0,0,.32-.3l.27-.29.26-.27a1.71,1.71,0,0,1,.24-.22,3.49,3.49,0,0,0,.33-.3,2,2,0,0,0,.3-.39.86.86,0,0,1,.16-.21,1.59,1.59,0,0,1,.23-.2,2.75,2.75,0,0,0,.35-.31l.27-.29.26-.27a2.55,2.55,0,0,0,.3-.37,1.15,1.15,0,0,1,.18-.23.82.82,0,0,1,.2-.16,1.82,1.82,0,0,0,.41-.32c.15-.15.21-.23.28-.31l.24-.26.27-.28.26-.27.25-.25.3-.29.25-.25c.08-.07.15-.14.3-.29a1.47,1.47,0,0,0,.31-.45.54.54,0,0,1,.12-.18,1.24,1.24,0,0,1,.22-.18,2.22,2.22,0,0,0,.38-.31.51.51,0,0,0-.06-.75.61.61,0,0,0-.2-.11.58.58,0,0,0-.59.13,1.3,1.3,0,0,1-.22.18,2.25,2.25,0,0,0-.38.31,1.44,1.44,0,0,0-.31.45.54.54,0,0,1-.13.18l-.25.24-.3.29-.25.25-.3.29-.27.28-.26.27c-.15.15-.22.24-.28.31l-.23.26a.88.88,0,0,1-.2.16,1.82,1.82,0,0,0-.41.32,2.09,2.09,0,0,0-.3.37,1.2,1.2,0,0,1-.18.22Z"/><path class="cls-1" d="M337.28,180.16a.54.54,0,0,0,.32.7.56.56,0,0,0,.73-.27,1.82,1.82,0,0,0,.14-.47.86.86,0,0,1,.07-.25,2.32,2.32,0,0,1,.14-.28,3,3,0,0,0,.2-.39l.15-.36.14-.34a2.32,2.32,0,0,1,.15-.29,3.84,3.84,0,0,0,.19-.38,3,3,0,0,0,.14-.4,2.72,2.72,0,0,1,.11-.3,2,2,0,0,0,.14-.45,1.12,1.12,0,0,1,.08-.27,2.77,2.77,0,0,1,.15-.31c0-.09.09-.18.17-.38l.15-.32.16-.36a.86.86,0,0,1,.13-.22,1.72,1.72,0,0,0,.25-.43.54.54,0,0,0-.32-.7l0,0a.55.55,0,0,0-.69.28.88.88,0,0,1-.13.22,1.71,1.71,0,0,0-.25.43l-.15.33-.16.36c-.07.16-.1.22-.15.3s-.1.18-.18.38a2,2,0,0,0-.14.45,1.2,1.2,0,0,1-.08.27,3.44,3.44,0,0,0-.14.4,2.92,2.92,0,0,1-.11.31,2.52,2.52,0,0,1-.14.29,3.62,3.62,0,0,0-.19.39l-.15.36-.14.34a2.25,2.25,0,0,1-.14.28,3,3,0,0,0-.2.39,2,2,0,0,0-.14.47A.88.88,0,0,1,337.28,180.16Z"/><path class="cls-1" d="M341.06,172.48a.56.56,0,0,0,.73-.27,1.58,1.58,0,0,1,.14-.27,3.88,3.88,0,0,0,.19-.39l.14-.35.14-.33a2.27,2.27,0,0,1,.14-.28,3.92,3.92,0,0,0,.33-.77,1.91,1.91,0,0,1,.11-.3,2.06,2.06,0,0,0,.14-.44,1.13,1.13,0,0,1,.08-.26c.07-.15.1-.22.14-.3s.1-.18.17-.37l.14-.32.16-.35a.91.91,0,0,1,.12-.21,1.57,1.57,0,0,0,.25-.43.54.54,0,0,0-.32-.7h0a.55.55,0,0,0-.7.28.81.81,0,0,1-.13.21,1.7,1.7,0,0,0-.25.43l-.14.32-.16.35c-.07.15-.1.22-.14.3s-.09.18-.17.37a2.09,2.09,0,0,0-.14.44,1,1,0,0,1-.08.26,3.16,3.16,0,0,0-.14.39c0,.08,0,.15-.11.3a1.92,1.92,0,0,1-.14.28,3.18,3.18,0,0,0-.19.38l-.15.35-.14.33a2.06,2.06,0,0,1-.14.28,3.22,3.22,0,0,0-.2.39A.55.55,0,0,0,341.06,172.48Z"/><path class="cls-1" d="M343.91,164.55a.54.54,0,0,0,.32.7A.56.56,0,0,0,345,165a1.69,1.69,0,0,0,.13-.46.82.82,0,0,1,.07-.24,2.44,2.44,0,0,1,.14-.27,2.46,2.46,0,0,0,.19-.38l.14-.34.13-.32a2.77,2.77,0,0,1,.13-.28,2.89,2.89,0,0,0,.19-.37,3.91,3.91,0,0,0,.14-.39,2.71,2.71,0,0,1,.1-.29,1.89,1.89,0,0,0,.14-.44,1.13,1.13,0,0,1,.07-.25c.06-.15.1-.21.14-.29a3.71,3.71,0,0,0,.17-.36L347,160c0-.08.08-.17.16-.35a.72.72,0,0,1,.12-.2,1.7,1.7,0,0,0,.25-.42.54.54,0,0,0-.32-.7l0,0a.55.55,0,0,0-.69.28.7.7,0,0,1-.12.21,1.67,1.67,0,0,0-.25.42l-.14.31-.16.35a3.17,3.17,0,0,1-.14.29c0,.08-.09.18-.17.36a1.9,1.9,0,0,0-.13.44,1.07,1.07,0,0,1-.08.25,3.78,3.78,0,0,0-.14.39,2.21,2.21,0,0,1-.1.29,2.42,2.42,0,0,1-.14.27,3.05,3.05,0,0,0-.18.38l-.14.34-.13.32a2.34,2.34,0,0,1-.14.27,3,3,0,0,0-.19.38,1.94,1.94,0,0,0-.13.46A.71.71,0,0,1,343.91,164.55Z"/><path class="cls-1" d="M365.8,206.09c.08-.17.17-.34.23-.52,1.7-5.12,4.07-13.78,5.77-18.9a1,1,0,0,1,1.08-.74.89.89,0,0,1,.88.72,1.16,1.16,0,0,1-.06.51c-1.72,5.22-4.13,14-5.85,19.19a1,1,0,0,1-.87.75,1,1,0,0,1-1-.42l-.13-.14Z"/><path class="cls-1" d="M372.07,196.36l1-2.89c.57-1.73,1.15-3.46,1.71-5.19.1-.3.25-.37.57-.31a15.74,15.74,0,0,1,6.39,2.59,4.69,4.69,0,0,1,.39.34,1.88,1.88,0,0,1,.72,2,1.24,1.24,0,0,0,.39,1.29,5,5,0,0,0,4,1.58h.51a.72.72,0,0,1,.16,0,3.49,3.49,0,0,1-1.36,2,7.07,7.07,0,0,1-2.94,1.18,8.35,8.35,0,0,1-3.43,0,2.47,2.47,0,0,1-.66-.23c-.37-.2-.39-.39-.1-.69s.3-.69-.22-.94a7.73,7.73,0,0,0-2.74-.6c-1.3-.11-2.61-.14-3.91-.21Z"/></g></g></svg>